<?xml version="1.0" encoding="utf-8"?>
<!-- Generator: Adobe Illustrator 25.1.0, SVG Export Plug-In . SVG Version: 6.00 Build 0)  -->
<svg version="1.1" id="Capa_1" xmlns="http://www.w3.org/2000/svg" xmlns:xlink="http://www.w3.org/1999/xlink" x="0px" y="0px"
	 viewBox="0 0 16 16" enable-background="new 0 0 16 16" xml:space="preserve">
<path fill="#FFFFFF" d="M9.3,1.6c0.8,0.8,0.8,2,0,2.8c-0.8,0.8-2,0.8-2.8,0s-0.8-2,0-2.8C7.5,0.8,8.5,0.8,9.3,1.6"/>
<path fill="#FFFFFF" d="M9.3,6.7c0.8,0.8,0.8,2,0,2.8c-0.8,0.8-2,0.8-2.8,0c-0.8-0.8-0.8-2,0-2.8C7.5,5.8,8.5,5.8,9.3,6.7"/>
<path fill="#FFFFFF" d="M9.3,11.5c0.8,0.8,0.8,2.1,0,2.9c-0.8,0.8-2,0.8-2.8,0c-0.8-0.8-0.8-2.1,0-2.9C7.5,10.8,8.5,10.8,9.3,11.5"
	/>
</svg>
